
nColumns=19
nRows=50
DataType=double
version=3
OpenSimVersion=4.4-2022-10-11-798caa840
endheader
time	ground_force_calcn_r_vx	ground_force_calcn_r_vy	ground_force_calcn_r_vz	ground_force_calcn_r_px	ground_force_calcn_r_py	ground_force_calcn_r_pz	ground_force_calcn_r_mx	ground_force_calcn_r_my	ground_force_calcn_r_mz	ground_force_calcn_l_vx	ground_force_calcn_l_vy	ground_force_calcn_l_vz	ground_force_calcn_l_px	ground_force_calcn_l_py	ground_force_calcn_l_pz	ground_force_calcn_l_mx	ground_force_calcn_l_my	ground_force_calcn_l_mz
1.68	0	0	0	0	0	0	0	0	0	-173.126	203.391	40.4924	-0.0965239	0	-0.790483	0.26478	-0.311067	-0.0619294
1.69	-95.51739999999999	998.953	-70.5485	-0.254841	0	-0.397643	0.0354481	-0.370729	0.0261817	-432.316	643.268	98.1063	-0.110341	0	-0.794974	-0.0275568	0.0410034	0.00625352
1.7	-158.278	2161.61	-138.472	-0.256899	0	-0.399361	0.434229	-5.93028	0.379893	-188.627	643.504	125.565	-0.134174	0	-0.796625	0.670073	-2.28597	-0.446053
1.71	-163.104	1328.84	-100.704	-0.248529	0	-0.398953	0.6573600000000001	-5.35564	0.405867	-26.4224	792.506	157.415	-0.188217	0	-0.789367	0.0466598	-1.3995	-0.277982
1.72	-236.171	581.526	-72.5102	-0.211219	0	-0.393257	0.960572	-2.36522	0.294919	13.3061	1048.3	139.724	-0.219365	0	-0.778641	0.0292524	2.30459	0.307173
1.73	-250.412	326.334	-60.3755	-0.155987	0	-0.384801	0.804471	-1.04838	0.193961	-90.3339	881.609	103.892	-0.210645	0	-0.775501	-0.517383	5.04937	0.595035
1.74	-283.104	369.551	-72.8064	-0.149285	0	-0.383667	0.873962	-1.14083	0.224758	-238.131	683.789	89.9032	-0.178363	0	-0.778625	-1.92708	5.53356	0.727541
1.75	-292.923	532.418	-66.3978	-0.167858	0	-0.389227	1.43488	-2.60804	0.325249	-234.091	578.278	73.88809999999999	-0.156989	0	-0.7803949999999999	-2.34864	5.80188	0.741322
1.76	-215.869	659.774	-52.9164	-0.182977	0	-0.393088	1.25664	-3.84073	0.308041	-164.84	557.53	77.6527	-0.15277	0	-0.78028	-1.71765	5.80954	0.809153
1.77	-127.904	763.641	-66.6669	-0.194509	0	-0.393829	0.576164	-3.43995	0.300313	-138.632	591.984	98.1742	-0.1523	0	-0.780685	-1.13819	4.86027	0.806023
1.78	-76.02500000000001	818.138	-87.36190000000001	-0.198632	0	-0.392734	0.244236	-2.62833	0.280657	-141.373	628.098	111.658	-0.150341	0	-0.781	-0.96338	4.28014	0.760885
1.79	-69.4894	803.3	-87.3241	-0.194939	0	-0.391523	0.241605	-2.79297	0.303614	-132.968	656.7140000000001	117.254	-0.150251	0	-0.780758	-0.88569	4.37434	0.781025
1.8	-86.09699999999999	749.926	-74.66840000000001	-0.186251	0	-0.390235	0.468875	-4.08402	0.406637	-107.346	695.063	119.275	-0.15394	0	-0.779748	-0.73416	4.75368	0.81575
1.81	-103.777	697.735	-70.86190000000001	-0.17598	0	-0.388062	0.728455	-4.89771	0.497411	-82.0446	730.292	121.678	-0.157559	0	-0.778885	-0.546737	4.86659	0.810852
1.82	-111.48	663.105	-83.196	-0.166609	0	-0.385051	0.727974	-4.33012	0.543275	-71.8798	737.626	125.451	-0.157113	0	-0.778965	-0.440659	4.52202	0.769077
1.83	-106.424	652.676	-98.53879999999999	-0.160039	0	-0.382696	0.52216	-3.20229	0.483471	-71.8925	715.923	127.77	-0.152903	0	-0.779541	-0.389439	3.87812	0.692125
1.84	-94.71169999999999	660.64	-106.176	-0.156835	0	-0.381882	0.375312	-2.6179	0.420739	-72.1985	681.573	126.822	-0.147606	0	-0.779932	-0.344587	3.25299	0.605291
1.85	-83.6452	680.197	-107.216	-0.156649	0	-0.382261	0.356833	-2.90174	0.457386	-71.6651	646.378	121.248	-0.143018	0	-0.779931	-0.335901	3.02964	0.568304
1.86	-70.5791	703.603	-104.721	-0.158669	0	-0.383374	0.373114	-3.71957	0.553604	-71.3031	611.724	114.396	-0.139037	0	-0.779717	-0.346997	2.97696	0.556711
1.87	-56.2704	722.713	-101.713	-0.16139	0	-0.384739	0.358988	-4.61069	0.6488969999999999	-69.4627	579.248	109.118	-0.135863	0	-0.779354	-0.346652	2.89072	0.544551
1.88	-45.1404	729.852	-100.689	-0.163083	0	-0.385768	0.325066	-5.25582	0.7250799999999999	-64.56229999999999	555.407	105.164	-0.134387	0	-0.7786920000000001	-0.344312	2.96199	0.560842
1.89	-40.8721	725.292	-101.809	-0.16316	0	-0.386293	0.313125	-5.55653	0.779965	-57.0814	545.461	102.789	-0.134997	0	-0.777709	-0.337367	3.22383	0.6075120000000001
1.9	-42.3546	721.845	-102.524	-0.163015	0	-0.386855	0.338641	-5.77142	0.819717	-49.3703	549.2190000000001	102.363	-0.13701	0	-0.776736	-0.324659	3.61166	0.673137
1.91	-41.8775	723.436	-101.253	-0.16401	0	-0.387904	0.351286	-6.06848	0.849356	-42.9672	560.1420000000001	102.708	-0.139727	0	-0.77577	-0.325336	4.24125	0.77768
1.92	-35.0816	729.454	-99.3321	-0.166527	0	-0.38939	0.305851	-6.35957	0.866004	-37.103	569.931	102.792	-0.142563	0	-0.774917	-0.321759	4.94247	0.891415
1.93	-23.6583	739.986	-98.0127	-0.170013	0	-0.390986	0.208227	-6.51293	0.862652	-31.5959	573.222	102.834	-0.144503	0	-0.774235	-0.299304	5.43006	0.974137
1.94	-11.0139	752.758	-97.2226	-0.173499	0	-0.392312	0.0958249	-6.54928	0.845874	-27.7311	568.314	103.508	-0.145156	0	-0.773707	-0.27158	5.5657	1.01369
1.95	-0.372931	763.832	-96.46510000000001	-0.175685	0	-0.393003	0.00313824	-6.42771	0.811761	-25.5035	556.708	104.879	-0.144798	0	-0.773404	-0.251276	5.48503	1.03334
1.96	3.80395	768.428	-97.2668	-0.17521	0	-0.392732	-0.0297678	-6.01334	0.761162	-23.2833	542.292	106.457	-0.144139	0	-0.773228	-0.22914	5.33692	1.04769
1.97	0.664592	764.764	-99.2963	-0.172321	0	-0.391765	-0.00478239	-5.50323	0.714534	-20.6781	530.272	108.904	-0.143589	0	-0.773041	-0.199381	5.11296	1.05007
1.98	-3.82954	758.164	-100.12	-0.168534	0	-0.390716	0.0258788	-5.12343	0.676576	-17.9229	523.668	112.997	-0.143121	0	-0.772778	-0.162172	4.73829	1.02243
1.99	-6.49605	753.218	-100.863	-0.164471	0	-0.389622	0.0411348	-4.76959	0.638693	-14.1532	522.02	118.195	-0.142851	0	-0.772478	-0.116796	4.30786	0.975376
2	-8.72495	750.08	-102.711	-0.159927	0	-0.388341	0.0500603	-4.30366	0.589313	-9.448740000000001	522.63	122.96	-0.142763	0	-0.772093	-0.071906	3.97728	0.935742
2.01	-11.6389	745.276	-103.866	-0.154794	0	-0.386896	0.0601278	-3.85019	0.536586	-5.23799	523.836	125.914	-0.142358	0	-0.77152	-0.0377233	3.77259	0.906818
2.02	-14.5851	738.761	-104.182	-0.149529	0	-0.385419	0.0688738	-3.48857	0.491966	-3.50812	526.492	127.039	-0.141133	0	-0.771204	-0.0247376	3.71256	0.895819
2.03	-17.7146	731.934	-104.598	-0.144457	0	-0.384155	0.07736750000000001	-3.19669	0.456825	-4.95587	525.6180000000001	126.893	-0.138654	0	-0.7713410000000001	-0.0342208	3.62945	0.876208
2.04	-20.03	725.718	-103.295	-0.140254	0	-0.383255	0.084619	-3.06588	0.436379	-8.204789999999999	515.99	125.036	-0.135072	0	-0.771639	-0.0546592	3.43745	0.832974
2.05	-21.2026	719.492	-100.853	-0.137083	0	-0.382779	0.0889619	-3.01885	0.423159	-11.9023	501.389	122.708	-0.130926	0	-0.7717810000000001	-0.07136720000000001	3.00637	0.7357669999999999
2.06	-24.0031	711.827	-99.366	-0.134185	0	-0.382387	0.09751890000000001	-2.89198	0.4037	-16.0984	489.682	121.428	-0.126972	0	-0.771985	-0.08122749999999999	2.47077	0.612685
2.07	-28.5375	703.697	-98.4913	-0.131288	0	-0.381959	0.109561	-2.70163	0.378127	-20.8334	486.633	121.587	-0.124018	0	-0.772264	-0.0900939	2.10444	0.5258
2.08	-33.1263	696.845	-97.3569	-0.128648	0	-0.381441	0.121168	-2.54889	0.356107	-24.7819	492.686	122.888	-0.121956	0	-0.772664	-0.0982621	1.95354	0.487259
2.09	-37.7484	693.176	-95.8794	-0.126421	0	-0.380981	0.137174	-2.51893	0.348416	-28.2638	507.415	125.043	-0.120578	0	-0.773285	-0.115064	2.06573	0.509059
2.1	-42.1204	692.728	-94.3723	-0.124582	0	-0.380587	0.15652	-2.57419	0.350689	-31.9548	528.59	127.878	-0.119326	0	-0.774334	-0.137881	2.2808	0.551777
2.11	-46.4535	695.744	-93.4251	-0.123171	0	-0.380038	0.179024	-2.68128	0.360045	-35.9251	551.465	130.581	-0.118167	0	-0.775555	-0.15713	2.41201	0.571141
2.12	-51.2409	700.41	-91.80419999999999	-0.121944	0	-0.379551	0.210078	-2.87155	0.37638	-39.2164	571.801	131.732	-0.116987	0	-0.776748	-0.169741	2.47494	0.57018
2.13	-56.6149	704.602	-87.98650000000001	-0.120723	0	-0.379217	0.258709	-3.21976	0.402065	-43.2458	587.847	130.445	-0.115536	0	-0.778017	-0.181593	2.46842	0.54775
2.14	-63.5399	707.529	-82.1652	-0.119366	0	-0.37901	0.319515	-3.55785	0.413173	-48.2317	595.825	125.805	-0.113697	0	-0.779122	-0.196141	2.42301	0.511606
2.15	-71.84310000000001	706.138	-74.98990000000001	-0.117836	0	-0.378917	0.374644	-3.68233	0.391054	-52.564	589.302	116.086	-0.111441	0	-0.780206	-0.219707	2.46316	0.485219
2.16	-80.1863	695.8920000000001	-67.34690000000001	-0.11629	0	-0.378691	0.399955	-3.47098	0.335914	-56.8596	563.129	101.185	-0.108714	0	-0.7810780000000001	-0.255038	2.52586	0.453853
2.17	-86.95359999999999	669.783	-59.7085	-0.114698	0	-0.378242	0.370254	-2.85198	0.254242	-56.1425	506.809	80.196	-0.105517	0	-0.781731	-0.26605	2.40168	0.380035
